<svg width="512" height="512" xmlns="http://www.w3.org/2000/svg" data-name="图层 1"><defs><clipPath transform="translate(-134 -23.9)" id="a"><path fill="none" class="cls-1" d="M181.614 79.659h754.8v723.84h-754.8z"/></clipPath></defs><g stroke="null"><g clip-path="url(#a)" class="cls-2"><path fill="#b0a5fa" d="M69.42 182.78a21.867 21.867 0 0 1-21.15-26.726c6.516-27.831 20.431-51.741 40.09-69.025C111 67.15 140.817 56.66 174.666 56.66c36.335 0 61.57 25.842 78.191 42.96l2.706 2.761 1.49-1.877c13.53-16.4 36.114-43.844 74.381-43.844 33.132 0 62.84 8.614 85.922 24.959s38.322 38.598 45.997 65.71a21.756 21.756 0 1 1-41.856 11.873c-10.657-37.55-43.458-59.085-90.063-59.085-16.455 0-27.278 11.652-40.752 28.052-7.951 9.608-15.406 18.72-25.842 23.081a21.756 21.756 0 0 1-16.842 0c-9.443-3.975-17.229-11.982-26.285-21.259-13.639-14.026-29.045-29.874-47.047-29.874-61.9 0-79.405 46.109-84.099 65.877A21.701 21.701 0 0 1 69.42 182.78zm0 0" class="cls-3"/></g><path fill="#594bc8" d="M444.304 234.63a21.701 21.701 0 0 0-28.935 10.382c-5.467 11.54-13.032 23.303-22.695 37.439-41.194 56.931-109.004 106.408-136.116 124.906-33.132-23.082-127.226-92.382-158.59-155.774a21.756 21.756 0 1 0-38.985 19.272c43.347 87.633 179.794 177.199 185.592 180.954a21.59 21.59 0 0 0 23.413.165c4.197-2.595 102.984-65.159 160.081-144.233l.332-.497c10.933-15.958 19.547-29.487 26.284-43.678a21.701 21.701 0 0 0-10.381-28.935zm0 0" class="cls-4"/><path fill="#594bc8" d="M165.777 276.984h38.101a21.756 21.756 0 0 0 17.063-8.283l14.192-17.946v71.564a21.756 21.756 0 0 0 21.756 21.757 21.922 21.922 0 0 0 16.842-8.007l48.151-59.085h34.402a21.756 21.756 0 0 0 0-43.513h-44.728a21.646 21.646 0 0 0-16.842 8.007l-16.068 19.713v-73.055a21.756 21.756 0 0 0-38.82-13.473l-46.494 58.808h-27.555a21.756 21.756 0 0 0 0 43.513zm0 0" class="cls-4"/></g></svg>