<svg id="图层_1" data-name="图层 1" xmlns="http://www.w3.org/2000/svg" xmlns:xlink="http://www.w3.org/1999/xlink" viewBox="0 0 754.3 722"><defs><style>.cls-1{fill:none;}.cls-2{clip-path:url(#clip-path);}.cls-3{fill:#b0a5fa;}.cls-4{fill:#594bc8;}</style><clipPath id="clip-path" transform="translate(-134 -23.9)"><rect class="cls-1" x="134" y="23" width="754.8" height="723.84"/></clipPath></defs><g class="cls-2"><path class="cls-3" d="M173.4,252.3a39.6,39.6,0,0,1-38.3-48.4c11.8-50.4,37-93.7,72.6-125,41-36,95-55,156.3-55,65.8,0,111.5,46.8,141.6,77.8l4.9,5,2.7-3.4c24.5-29.7,65.4-79.4,134.7-79.4,60,0,113.8,15.6,155.6,45.2s69.4,69.9,83.3,119A39.4,39.4,0,1,1,811,209.6c-19.3-68-78.7-107-163.1-107-29.8,0-49.4,21.1-73.8,50.8-14.4,17.4-27.9,33.9-46.8,41.8a39.4,39.4,0,0,1-30.5,0c-17.1-7.2-31.2-21.7-47.6-38.5-24.7-25.4-52.6-54.1-85.2-54.1-112.1,0-143.8,83.5-152.3,119.3a39.3,39.3,0,0,1-38.3,30.4Zm0,0" transform="translate(-134 -23.9)"/></g><path class="cls-4" d="M852.3,346.2A39.3,39.3,0,0,0,799.9,365c-9.9,20.9-23.6,42.2-41.1,67.8C684.2,535.9,561.4,625.5,512.3,659c-60-41.8-230.4-167.3-287.2-282.1a39.4,39.4,0,1,0-70.6,34.9C233,570.5,480.1,732.7,490.6,739.5a39.1,39.1,0,0,0,42.4.3c7.6-4.7,186.5-118,289.9-261.2l.6-.9c19.8-28.9,35.4-53.4,47.6-79.1a39.3,39.3,0,0,0-18.8-52.4Zm0,0" transform="translate(-134 -23.9)"/><path class="cls-4" d="M347.9,422.9h69a39.4,39.4,0,0,0,30.9-15l25.7-32.5V505a39.4,39.4,0,0,0,39.4,39.4,39.7,39.7,0,0,0,30.5-14.5l87.2-107h62.3a39.4,39.4,0,0,0,0-78.8h-81a39.2,39.2,0,0,0-30.5,14.5l-29.1,35.7V262A39.4,39.4,0,0,0,482,237.6L397.8,344.1H347.9a39.4,39.4,0,0,0,0,78.8Zm0,0" transform="translate(-134 -23.9)"/></svg>